<svg width="202" height="58" viewBox="0 0 202 58" fill="none" xmlns="http://www.w3.org/2000/svg">
<g clip-path="url(#clip0_20_11)">
<path fill-rule="evenodd" clip-rule="evenodd" d="M67.1918 51.9694V11.9652H54.3328C47.9106 11.8093 48.1079 2.58883 54.3767 2.43173H90.1862C96.3898 2.99273 95.9102 11.8821 90.1423 11.9652H77.1545V51.9694C76.9966 57.8207 67.5465 57.7348 67.1918 51.9694Z" fill="#9DFF5C"/>
<path fill-rule="evenodd" clip-rule="evenodd" d="M117.934 37.1215C115.394 37.1215 113.303 36.2933 111.656 34.6422C110.008 32.9911 109.181 30.8975 109.181 28.3536C109.181 25.8096 110.011 23.7058 111.666 22.0547C113.322 20.4036 115.404 19.5751 117.934 19.5751C120.463 19.5751 122.566 20.4059 124.232 22.0649C125.898 23.7239 126.728 25.8149 126.728 28.3536C126.728 30.8923 125.896 32.9911 124.238 34.6422C122.58 36.2933 120.473 37.1215 117.934 37.1215Z" fill="#9DFF5C"/>
<path fill-rule="evenodd" clip-rule="evenodd" d="M2.07034 48.0256C6.09354 51.1642 6.13274 51.6418 13.0432 53.9881C19.9536 56.3343 35.895 57.6543 44.1334 51.5128C48.4851 48.3453 50.6835 44.307 50.7942 39.4092C50.9832 35.1025 49.5995 31.4909 46.7258 28.4743C41.2616 22.5966 33.7231 22.2965 26.3159 21.8009C20.3875 21.4548 16.4881 20.8524 14.1912 19.5138C8.97844 15.3139 17.0233 10.8901 22.1653 10.952C27.3074 11.0139 30.8643 11.9173 34.0368 13.2177C37.2093 14.5182 36.0986 14.3004 39.994 17.0621C43.8895 19.8237 51.2362 14.3196 45.6594 8.78452C41.8617 5.96982 39.8526 5.00393 35.6204 3.56403C31.3882 2.12423 27.9205 1.41241 22.763 1.41241C17.6054 1.41241 12.0286 2.73973 8.19934 5.48883C4.37004 8.23793 2.27694 11.7669 2.11804 16.0157C1.80154 21.0232 4.22624 25.0115 8.35774 27.6603C10.8378 29.1812 15.6071 30.5875 22.4481 31.2362C27.6484 32.0649 40.9142 30.6638 40.3723 39.1957C40.1524 45.0654 31.7007 46.7008 27.217 46.6871C18.7744 46.6154 12.7786 43.2975 7.75734 39.6096C2.62074 36.908 -3.11906 41.9482 2.07034 48.0256Z" fill="#9DFF5C"/>
<path fill-rule="evenodd" clip-rule="evenodd" d="M117.894 46.655C123.322 46.5978 126.912 45.0517 130.1 41.659C133.287 38.2662 134.883 33.7954 134.795 28.3483C134.708 22.9013 133.377 19.274 129.809 15.7171C126.241 12.1602 121.346 11.0646 117.894 11.021C114.443 10.9773 109.248 12.4366 106.045 15.7171C102.841 18.9977 100.863 22.8885 100.983 28.3483C101.102 33.8081 102.647 38.1432 105.759 41.659C108.87 45.1748 112.467 46.7123 117.894 46.655ZM117.894 56.2526C109.778 56.3402 103.701 53.69 98.3062 48.4253C92.9116 43.1605 90.684 36.4894 90.6444 28.3483C90.6047 20.2072 93.4779 14.0093 98.8141 8.72583C104.15 3.44233 110.241 1.27383 117.894 1.34973C125.548 1.42573 131.441 3.48283 136.931 8.72583C142.421 13.9687 145.056 19.8588 145.129 28.3483C145.201 36.8378 142.849 43.142 137.316 48.6186C131.784 54.0951 126.011 56.165 117.894 56.2526Z" fill="#9DFF5C"/>
<path d="M161.933 15.0185L161.933 15.0185C158.57 18.4627 156.45 22.6602 156.586 28.3722L156.586 28.3722C156.72 33.9829 158.436 38.5028 161.671 42.0558L161.671 42.0558C164.963 45.6717 170.39 47.2824 174.429 47.3648C178.554 47.449 183.713 45.5982 187.211 42.254C190.765 38.8567 192.453 33.9641 192.399 28.3387C192.372 25.546 192.006 23.1495 191.156 20.9692C190.303 18.783 188.983 16.8675 187.118 15.0089C183.304 11.2063 178.119 10.0667 174.511 10.0211C170.855 9.97482 165.371 11.4972 161.933 15.0185ZM196.046 44.1113L196.855 44.6988L196.046 44.1113C195.59 44.739 195.24 45.4793 195.491 46.27C195.711 46.965 196.328 47.3854 196.692 47.6325C196.788 47.6981 196.886 47.763 196.985 47.8282C197.771 48.3496 198.595 48.8963 199.182 50.0705C199.743 51.1946 199.434 52.4198 198.52 53.4816C197.588 54.564 196.202 55.2484 195.088 55.2526C194.077 55.2564 192.965 54.4871 191.985 53.4523C191.523 52.9643 191.141 52.4718 190.874 52.0994C190.741 51.9141 190.638 51.7608 190.57 51.6557C190.536 51.6031 190.51 51.5628 190.494 51.5367L190.476 51.5085L190.473 51.5033L190.473 51.5029L190.473 51.5026L190.473 51.5023L189.941 50.6183L189.073 51.1794C185.09 53.7571 180.226 55.1884 174.487 55.2527C168.815 55.3161 160.791 52.7676 155.608 47.7097C150.451 42.6767 148.287 36.2887 148.248 28.3434C148.21 20.4872 150.964 14.5427 156.121 9.43644C161.245 4.3633 167.068 2.27609 174.488 2.34968C181.924 2.42352 187.562 4.40474 192.844 9.44901C198.118 14.4862 200.679 21.1007 200.732 28.3556C200.785 35.5967 197.582 41.9958 196.046 44.1113Z" fill="#1B1918" stroke="#9DFF5C" stroke-width="2"/>
<path fill-rule="evenodd" clip-rule="evenodd" d="M174.469 37.1215C171.929 37.1215 169.839 36.2933 168.191 34.6422C166.544 32.9911 165.717 30.8975 165.717 28.3536C165.717 25.8096 166.546 23.7058 168.202 22.0547C169.857 20.4036 171.94 19.5751 174.469 19.5751C176.998 19.5751 179.102 20.4059 180.768 22.0649C182.434 23.7239 183.263 25.8149 183.263 28.3536C183.263 30.8923 182.431 32.9911 180.773 34.6422C179.115 36.2933 177.009 37.1215 174.469 37.1215Z" fill="#9DFF5C"/>
</g>
<defs>
<clipPath id="clip0_20_11">
<rect width="202" height="58" fill="white"/>
</clipPath>
</defs>
</svg>
