<svg width="26" height="26" viewBox="0 0 26 26" fill="none" xmlns="http://www.w3.org/2000/svg">
<path fill-rule="evenodd" clip-rule="evenodd" d="M23.5166 5.4929C23.8261 5.80824 24 6.23587 24 6.68176C24 7.12765 23.8261 7.55529 23.5166 7.87063L11.1426 20.4745C10.9791 20.6411 10.7849 20.7733 10.5713 20.8634C10.3576 20.9536 10.1286 21 9.89728 21C9.66599 21 9.43697 20.9536 9.22329 20.8634C9.00962 20.7733 8.81547 20.6411 8.65195 20.4745L2.504 14.2135C2.34632 14.0584 2.22055 13.8728 2.13403 13.6677C2.04751 13.4625 2.00197 13.2418 2.00006 13.0186C1.99816 12.7953 2.03993 12.5739 2.12294 12.3672C2.20595 12.1605 2.32853 11.9728 2.48354 11.8149C2.63854 11.657 2.82287 11.5322 3.02576 11.4476C3.22865 11.3631 3.44604 11.3205 3.66524 11.3225C3.88445 11.3244 4.10108 11.3708 4.3025 11.4589C4.50391 11.547 4.68608 11.6751 4.83837 11.8358L9.89672 16.9881L21.1812 5.4929C21.3345 5.33664 21.5165 5.21268 21.7169 5.1281C21.9173 5.04353 22.132 5 22.3489 5C22.5658 5 22.7806 5.04353 22.9809 5.1281C23.1813 5.21268 23.3633 5.33664 23.5166 5.4929Z" fill="white"/>
</svg>
