<svg width="202" height="55" viewBox="0 0 202 55" fill="none" xmlns="http://www.w3.org/2000/svg">
<g clip-path="url(#clip0_3_54)">
<path fill-rule="evenodd" clip-rule="evenodd" d="M67.1918 50.171V10.1668H54.3328C47.9106 10.0109 48.1079 0.790431 54.3767 0.633331H90.1862C96.3898 1.19433 95.9102 10.0837 90.1423 10.1668H77.1545V50.171C76.9966 56.0223 67.5465 55.9364 67.1918 50.171Z" fill="#B2C900"/>
<path fill-rule="evenodd" clip-rule="evenodd" d="M117.934 35.3231C115.394 35.3231 113.303 34.495 111.656 32.8438C110.008 31.1927 109.181 29.0991 109.181 26.5552C109.181 24.0112 110.011 21.9074 111.666 20.2563C113.322 18.6052 115.404 17.7767 117.934 17.7767C120.463 17.7767 122.566 18.6075 124.232 20.2665C125.898 21.9256 126.728 24.0165 126.728 26.5552C126.728 29.0939 125.896 31.1927 124.238 32.8438C122.58 34.495 120.473 35.3231 117.934 35.3231Z" fill="#B2C900"/>
<path fill-rule="evenodd" clip-rule="evenodd" d="M2.07034 46.2272C6.09354 49.3658 6.13274 49.8434 13.0432 52.1897C19.9536 54.5359 35.895 55.8559 44.1334 49.7144C48.4851 46.5469 50.6835 42.5086 50.7942 37.6108C50.9832 33.3041 49.5995 29.6925 46.7258 26.6759C41.2616 20.7982 33.7231 20.4981 26.3159 20.0025C20.3875 19.6564 16.4881 19.054 14.1912 17.7154C8.97844 13.5155 17.0233 9.09173 22.1653 9.15363C27.3074 9.21553 30.8643 10.1189 34.0368 11.4193C37.2093 12.7198 36.0986 12.502 39.994 15.2637C43.8895 18.0253 51.2362 12.5212 45.6594 6.98611C41.8617 4.17141 39.8526 3.20553 35.6204 1.76562C31.3882 0.325825 27.9205 -0.385986 22.763 -0.385986C17.6054 -0.385986 12.0286 0.94133 8.19934 3.69043C4.37004 6.43953 2.27694 9.96852 2.11804 14.2173C1.80154 19.2248 4.22624 23.2131 8.35774 25.8619C10.8378 27.3828 15.6071 28.7891 22.4481 29.4378C27.6484 30.2665 40.9142 28.8654 40.3723 37.3973C40.1524 43.2671 31.7007 44.9024 27.217 44.8887C18.7744 44.817 12.7786 41.4991 7.75734 37.8112C2.62074 35.1096 -3.11906 40.1498 2.07034 46.2272Z" fill="#B2C900"/>
<path fill-rule="evenodd" clip-rule="evenodd" d="M117.894 44.8566C123.322 44.7994 126.912 43.2534 130.1 39.8606C133.287 36.4678 134.883 31.997 134.795 26.5499C134.708 21.1029 133.377 17.4757 129.809 13.9187C126.241 10.3618 121.346 9.26622 117.894 9.22262C114.443 9.17892 109.248 10.6382 106.045 13.9187C102.841 17.1993 100.863 21.0901 100.983 26.5499C101.102 32.0097 102.647 36.3448 105.759 39.8606C108.87 43.3764 112.467 44.9139 117.894 44.8566ZM117.894 54.4542C109.778 54.5418 103.701 51.8917 98.3062 46.6269C92.9116 41.3621 90.684 34.691 90.6444 26.5499C90.6047 18.4088 93.4779 12.2109 98.8141 6.92743C104.15 1.64393 110.241 -0.524571 117.894 -0.448671C125.548 -0.372671 131.441 1.68443 136.931 6.92743C142.421 12.1703 145.056 18.0604 145.129 26.5499C145.201 35.0394 142.849 41.3437 137.316 46.8202C131.784 52.2967 126.011 54.3666 117.894 54.4542Z" fill="#B2C900"/>
<path fill-rule="evenodd" clip-rule="evenodd" d="M174.449 44.5666C178.312 44.6454 183.214 42.8931 186.52 39.7327C189.827 36.5724 191.451 31.9734 191.399 26.5499C191.347 21.1264 189.98 17.4757 186.412 13.9187C182.844 10.3618 177.95 9.26622 174.498 9.22262C171.046 9.17892 165.852 10.6382 162.648 13.9187C159.445 17.1993 157.457 21.1454 157.586 26.5499C157.715 31.9545 159.36 36.2334 162.41 39.5842C165.461 42.935 170.587 44.4878 174.449 44.5666ZM174.498 54.4542C168.594 54.5202 160.304 51.8917 154.91 46.6269C149.515 41.3621 147.288 34.691 147.248 26.5499C147.208 18.4088 150.081 12.2109 155.418 6.92743C160.754 1.64393 166.844 -0.524571 174.498 -0.448671C182.152 -0.372671 188.044 1.68443 193.534 6.92743C199.024 12.1703 201.678 19.0529 201.732 26.5499C201.787 34.047 198.489 40.65 196.855 42.9004C195.221 45.1509 198.478 44.6253 200.076 47.8254C201.675 51.0254 198.011 54.4431 195.091 54.4542C192.172 54.4652 189.617 50.2206 189.617 50.2206C185.455 52.9133 180.402 54.3881 174.498 54.4542Z" fill="#1B1918"/>
<path fill-rule="evenodd" clip-rule="evenodd" d="M174.469 35.3231C171.929 35.3231 169.839 34.495 168.191 32.8438C166.544 31.1927 165.717 29.0991 165.717 26.5552C165.717 24.0112 166.546 21.9074 168.202 20.2563C169.857 18.6052 171.94 17.7767 174.469 17.7767C176.998 17.7767 179.102 18.6075 180.768 20.2665C182.434 21.9256 183.263 24.0165 183.263 26.5552C183.263 29.0939 182.431 31.1927 180.773 32.8438C179.115 34.495 177.009 35.3231 174.469 35.3231Z" fill="#1B1918"/>
</g>
<defs>
<clipPath id="clip0_3_54">
<rect width="202" height="55" fill="white"/>
</clipPath>
</defs>
</svg>
