<svg width="202" height="56" viewBox="0 0 202 56" fill="none" xmlns="http://www.w3.org/2000/svg">
<g clip-path="url(#clip0_20_64)">
<path fill-rule="evenodd" clip-rule="evenodd" d="M67.1918 50.9692V10.965H54.3328C47.9106 10.8091 48.1079 1.58862 54.3767 1.43152H90.1862C96.3898 1.99252 95.9102 10.882 90.1423 10.965H77.1545V50.9692C76.9966 56.8205 67.5465 56.7346 67.1918 50.9692Z" fill="#9DFF5C"/>
<path fill-rule="evenodd" clip-rule="evenodd" d="M117.934 36.1213C115.394 36.1213 113.303 35.2932 111.656 33.642C110.008 31.9909 109.181 29.8973 109.181 27.3534C109.181 24.8094 110.011 22.7056 111.666 21.0545C113.322 19.4034 115.404 18.5749 117.934 18.5749C120.463 18.5749 122.566 19.4057 124.232 21.0647C125.898 22.7238 126.728 24.8147 126.728 27.3534C126.728 29.8921 125.896 31.9909 124.238 33.642C122.58 35.2932 120.473 36.1213 117.934 36.1213Z" fill="#9DFF5C"/>
<path fill-rule="evenodd" clip-rule="evenodd" d="M2.07034 47.0254C6.09354 50.164 6.13274 50.6416 13.0432 52.9879C19.9536 55.3341 35.895 56.6541 44.1334 50.5126C48.4851 47.3451 50.6835 43.3068 50.7942 38.409C50.9832 34.1023 49.5995 30.4907 46.7258 27.4741C41.2616 21.5964 33.7231 21.2963 26.3159 20.8007C20.3875 20.4546 16.4881 19.8522 14.1912 18.5136C8.97844 14.3137 17.0233 9.88991 22.1653 9.95181C27.3074 10.0137 30.8643 10.9171 34.0368 12.2175C37.2093 13.518 36.0986 13.3002 39.994 16.0619C43.8895 18.8235 51.2362 13.3194 45.6594 7.78433C41.8617 4.96963 39.8526 4.00372 35.6204 2.56392C31.3882 1.12402 27.9205 0.412216 22.763 0.412216C17.6054 0.412216 12.0286 1.73952 8.19934 4.48862C4.37004 7.23772 2.27694 10.7667 2.11804 15.0155C1.80154 20.023 4.22624 24.0113 8.35774 26.6601C10.8378 28.181 15.6071 29.5873 22.4481 30.236C27.6484 31.0647 40.9142 29.6636 40.3723 38.1955C40.1524 44.0653 31.7007 45.7006 27.217 45.6869C18.7744 45.6152 12.7786 42.2973 7.75734 38.6094C2.62074 35.9078 -3.11906 40.948 2.07034 47.0254Z" fill="#9DFF5C"/>
<path fill-rule="evenodd" clip-rule="evenodd" d="M117.895 45.6548C123.322 45.5976 126.912 44.0516 130.1 40.6588C133.287 37.266 134.883 32.7952 134.796 27.3481C134.708 21.9011 133.377 18.2739 129.809 14.7169C126.241 11.16 121.346 10.0644 117.895 10.0208C114.443 9.97711 109.248 11.4364 106.045 14.7169C102.841 17.9975 100.863 21.8883 100.983 27.3481C101.102 32.8079 102.648 37.143 105.759 40.6588C108.87 44.1746 112.467 45.7121 117.895 45.6548ZM117.895 55.2524C109.778 55.34 103.701 52.6899 98.3064 47.4251C92.9118 42.1603 90.6843 35.4892 90.6447 27.3481C90.605 19.207 93.4782 13.0091 98.8144 7.72561C104.15 2.44211 110.241 0.273616 117.895 0.349516C125.548 0.425516 131.441 2.48261 136.931 7.72561C142.421 12.9685 145.056 18.8586 145.129 27.3481C145.202 35.8376 142.849 42.1419 137.316 47.6184C131.784 53.0949 126.011 55.1648 117.895 55.2524Z" fill="#9DFF5C"/>
<path fill-rule="evenodd" clip-rule="evenodd" d="M174.449 45.3649C178.312 45.4437 183.214 43.6913 186.52 40.5309C189.826 37.3706 191.451 32.7717 191.399 27.3481C191.347 21.9246 189.98 18.2739 186.412 14.7169C182.844 11.16 177.95 10.0644 174.498 10.0208C171.046 9.97711 165.852 11.4364 162.648 14.7169C159.445 17.9975 157.457 21.9436 157.586 27.3481C157.715 32.7527 159.36 37.0316 162.41 40.3824C165.461 43.7332 170.587 45.286 174.449 45.3649ZM174.498 55.2524C168.594 55.3184 160.304 52.6899 154.91 47.4251C149.515 42.1603 147.288 35.4892 147.248 27.3481C147.208 19.207 150.081 13.0091 155.418 7.72561C160.754 2.44211 166.844 0.273616 174.498 0.349516C182.151 0.425516 188.044 2.48261 193.534 7.72561C199.024 12.9685 201.678 19.8511 201.732 27.3481C201.787 34.8452 198.489 41.4482 196.855 43.6986C195.221 45.9491 198.478 45.4235 200.076 48.6236C201.674 51.8236 198.011 55.2413 195.091 55.2524C192.172 55.2634 189.616 51.0188 189.616 51.0188C185.455 53.7115 180.402 55.1863 174.498 55.2524Z" fill="#9DFF5C"/>
<path fill-rule="evenodd" clip-rule="evenodd" d="M174.469 36.1213C171.929 36.1213 169.839 35.2932 168.191 33.642C166.544 31.9909 165.717 29.8973 165.717 27.3534C165.717 24.8094 166.546 22.7056 168.202 21.0545C169.857 19.4034 171.94 18.5749 174.469 18.5749C176.998 18.5749 179.102 19.4057 180.768 21.0647C182.434 22.7238 183.263 24.8147 183.263 27.3534C183.263 29.8921 182.431 31.9909 180.773 33.642C179.115 35.2932 177.009 36.1213 174.469 36.1213Z" fill="#9DFF5C"/>
</g>
<defs>
<clipPath id="clip0_20_64">
<rect width="202" height="56" fill="white"/>
</clipPath>
</defs>
</svg>
